<mxfile host="Electron" agent="Mozilla/5.0 (Windows NT 10.0; Win64; x64) AppleWebKit/537.36 (KHTML, like Gecko) draw.io/24.7.17 Chrome/128.0.6613.36 Electron/32.0.1 Safari/537.36" version="24.7.17">
  <diagram name="Page-1" id="y9lQPB739BOqrqCYfP8g">
    <mxGraphModel dx="1151" dy="673" grid="1" gridSize="10" guides="1" tooltips="1" connect="1" arrows="1" fold="1" page="1" pageScale="1" pageWidth="827" pageHeight="1169" math="0" shadow="0">
      <root>
        <mxCell id="0" />
        <mxCell id="1" parent="0" />
        <mxCell id="5rSZPILJxiLm8hArLwOX-43" value="" style="rounded=0;whiteSpace=wrap;html=1;" vertex="1" parent="1">
          <mxGeometry x="70" y="430" width="700" height="140" as="geometry" />
        </mxCell>
        <mxCell id="5rSZPILJxiLm8hArLwOX-16" value="" style="rounded=0;whiteSpace=wrap;html=1;" vertex="1" parent="1">
          <mxGeometry x="70" y="210" width="700" height="220" as="geometry" />
        </mxCell>
        <mxCell id="5rSZPILJxiLm8hArLwOX-1" value="Felhas&lt;span style=&quot;background-color: initial;&quot;&gt;ználó&lt;/span&gt;" style="shape=umlActor;verticalLabelPosition=top;verticalAlign=bottom;html=1;outlineConnect=0;labelPosition=center;align=center;" vertex="1" parent="1">
          <mxGeometry x="140" y="20" width="30" height="60" as="geometry" />
        </mxCell>
        <mxCell id="5rSZPILJxiLm8hArLwOX-2" value="" style="endArrow=none;dashed=1;html=1;rounded=0;" edge="1" parent="1">
          <mxGeometry width="50" height="50" relative="1" as="geometry">
            <mxPoint x="155" y="160" as="sourcePoint" />
            <mxPoint x="154.6" y="100" as="targetPoint" />
          </mxGeometry>
        </mxCell>
        <mxCell id="5rSZPILJxiLm8hArLwOX-4" value="" style="endArrow=none;dashed=1;html=1;rounded=0;exitX=0.5;exitY=0;exitDx=0;exitDy=0;" edge="1" parent="1" source="5rSZPILJxiLm8hArLwOX-6" target="5rSZPILJxiLm8hArLwOX-1">
          <mxGeometry width="50" height="50" relative="1" as="geometry">
            <mxPoint x="155" y="160" as="sourcePoint" />
            <mxPoint x="154.6" y="100" as="targetPoint" />
          </mxGeometry>
        </mxCell>
        <mxCell id="5rSZPILJxiLm8hArLwOX-6" value="" style="rounded=0;whiteSpace=wrap;html=1;" vertex="1" parent="1">
          <mxGeometry x="150" y="160" width="10" height="400" as="geometry" />
        </mxCell>
        <mxCell id="5rSZPILJxiLm8hArLwOX-7" value="Foglalás" style="rounded=0;whiteSpace=wrap;html=1;" vertex="1" parent="1">
          <mxGeometry x="280" y="20" width="120" height="60" as="geometry" />
        </mxCell>
        <mxCell id="5rSZPILJxiLm8hArLwOX-8" value="" style="rounded=0;whiteSpace=wrap;html=1;" vertex="1" parent="1">
          <mxGeometry x="335" y="160" width="10" height="400" as="geometry" />
        </mxCell>
        <mxCell id="5rSZPILJxiLm8hArLwOX-9" value="" style="endArrow=none;dashed=1;html=1;rounded=0;entryX=0.5;entryY=1;entryDx=0;entryDy=0;exitX=0.5;exitY=0;exitDx=0;exitDy=0;" edge="1" parent="1" source="5rSZPILJxiLm8hArLwOX-8" target="5rSZPILJxiLm8hArLwOX-7">
          <mxGeometry width="50" height="50" relative="1" as="geometry">
            <mxPoint x="320" y="240" as="sourcePoint" />
            <mxPoint x="370" y="190" as="targetPoint" />
          </mxGeometry>
        </mxCell>
        <mxCell id="5rSZPILJxiLm8hArLwOX-10" value="" style="endArrow=classic;html=1;rounded=0;exitX=1;exitY=0;exitDx=0;exitDy=0;entryX=0;entryY=0;entryDx=0;entryDy=0;" edge="1" parent="1" source="5rSZPILJxiLm8hArLwOX-6" target="5rSZPILJxiLm8hArLwOX-8">
          <mxGeometry width="50" height="50" relative="1" as="geometry">
            <mxPoint x="320" y="240" as="sourcePoint" />
            <mxPoint x="370" y="190" as="targetPoint" />
          </mxGeometry>
        </mxCell>
        <mxCell id="5rSZPILJxiLm8hArLwOX-11" value="Foglalás gombot megnyomja" style="text;html=1;align=center;verticalAlign=middle;whiteSpace=wrap;rounded=0;" vertex="1" parent="1">
          <mxGeometry x="180" y="130" width="120" height="30" as="geometry" />
        </mxCell>
        <mxCell id="5rSZPILJxiLm8hArLwOX-12" value="" style="endArrow=classic;html=1;rounded=0;exitX=1;exitY=0;exitDx=0;exitDy=0;entryX=0.922;entryY=0.081;entryDx=0;entryDy=0;entryPerimeter=0;" edge="1" parent="1" source="5rSZPILJxiLm8hArLwOX-8" target="5rSZPILJxiLm8hArLwOX-8">
          <mxGeometry width="50" height="50" relative="1" as="geometry">
            <mxPoint x="360" y="170.00000000000023" as="sourcePoint" />
            <mxPoint x="390" y="210" as="targetPoint" />
            <Array as="points">
              <mxPoint x="400" y="160" />
              <mxPoint x="400" y="180" />
              <mxPoint x="400" y="195" />
            </Array>
          </mxGeometry>
        </mxCell>
        <mxCell id="5rSZPILJxiLm8hArLwOX-13" value="adat validálása" style="text;html=1;align=center;verticalAlign=middle;whiteSpace=wrap;rounded=0;" vertex="1" parent="1">
          <mxGeometry x="370" y="160" width="60" height="30" as="geometry" />
        </mxCell>
        <mxCell id="5rSZPILJxiLm8hArLwOX-17" value="az adat valid" style="whiteSpace=wrap;html=1;aspect=fixed;" vertex="1" parent="1">
          <mxGeometry x="70" y="210" width="40" height="40" as="geometry" />
        </mxCell>
        <mxCell id="5rSZPILJxiLm8hArLwOX-18" value="Státuszkezelő" style="rounded=0;whiteSpace=wrap;html=1;" vertex="1" parent="1">
          <mxGeometry x="460" y="20" width="120" height="60" as="geometry" />
        </mxCell>
        <mxCell id="5rSZPILJxiLm8hArLwOX-19" value="" style="rounded=0;whiteSpace=wrap;html=1;" vertex="1" parent="1">
          <mxGeometry x="515" y="210" width="10" height="80" as="geometry" />
        </mxCell>
        <mxCell id="5rSZPILJxiLm8hArLwOX-20" value="" style="endArrow=none;dashed=1;html=1;rounded=0;entryX=0.5;entryY=1;entryDx=0;entryDy=0;exitX=0.75;exitY=0;exitDx=0;exitDy=0;" edge="1" parent="1" source="5rSZPILJxiLm8hArLwOX-19" target="5rSZPILJxiLm8hArLwOX-18">
          <mxGeometry width="50" height="50" relative="1" as="geometry">
            <mxPoint x="410" y="280" as="sourcePoint" />
            <mxPoint x="460" y="230" as="targetPoint" />
          </mxGeometry>
        </mxCell>
        <mxCell id="5rSZPILJxiLm8hArLwOX-22" value="" style="endArrow=classic;html=1;rounded=0;" edge="1" parent="1">
          <mxGeometry width="50" height="50" relative="1" as="geometry">
            <mxPoint x="350" y="240" as="sourcePoint" />
            <mxPoint x="512" y="240" as="targetPoint" />
          </mxGeometry>
        </mxCell>
        <mxCell id="5rSZPILJxiLm8hArLwOX-23" value="szállásStatusz = foglalt" style="text;html=1;align=center;verticalAlign=middle;whiteSpace=wrap;rounded=0;" vertex="1" parent="1">
          <mxGeometry x="350" y="210" width="170" height="30" as="geometry" />
        </mxCell>
        <mxCell id="5rSZPILJxiLm8hArLwOX-31" value="" style="endArrow=block;dashed=1;endFill=0;endSize=12;html=1;rounded=0;exitX=0.092;exitY=0.899;exitDx=0;exitDy=0;entryX=1.5;entryY=0.284;entryDx=0;entryDy=0;entryPerimeter=0;exitPerimeter=0;" edge="1" parent="1" source="5rSZPILJxiLm8hArLwOX-19" target="5rSZPILJxiLm8hArLwOX-8">
          <mxGeometry width="160" relative="1" as="geometry">
            <mxPoint x="515" y="279.09" as="sourcePoint" />
            <mxPoint x="355" y="279.09" as="targetPoint" />
          </mxGeometry>
        </mxCell>
        <mxCell id="5rSZPILJxiLm8hArLwOX-35" value="Foglaláskezelő" style="rounded=0;whiteSpace=wrap;html=1;" vertex="1" parent="1">
          <mxGeometry x="610" y="20" width="120" height="60" as="geometry" />
        </mxCell>
        <mxCell id="5rSZPILJxiLm8hArLwOX-36" value="" style="rounded=0;whiteSpace=wrap;html=1;" vertex="1" parent="1">
          <mxGeometry x="665" y="320" width="10" height="240" as="geometry" />
        </mxCell>
        <mxCell id="5rSZPILJxiLm8hArLwOX-37" value="" style="endArrow=classic;html=1;rounded=0;exitX=0.4;exitY=0.591;exitDx=0;exitDy=0;exitPerimeter=0;entryX=-0.1;entryY=0.082;entryDx=0;entryDy=0;entryPerimeter=0;" edge="1" parent="1" source="5rSZPILJxiLm8hArLwOX-16" target="5rSZPILJxiLm8hArLwOX-36">
          <mxGeometry width="50" height="50" relative="1" as="geometry">
            <mxPoint x="400" y="340" as="sourcePoint" />
            <mxPoint x="450" y="290" as="targetPoint" />
          </mxGeometry>
        </mxCell>
        <mxCell id="5rSZPILJxiLm8hArLwOX-38" value="" style="endArrow=none;dashed=1;html=1;rounded=0;entryX=0.5;entryY=1;entryDx=0;entryDy=0;exitX=0.5;exitY=0;exitDx=0;exitDy=0;" edge="1" parent="1" source="5rSZPILJxiLm8hArLwOX-36" target="5rSZPILJxiLm8hArLwOX-35">
          <mxGeometry width="50" height="50" relative="1" as="geometry">
            <mxPoint x="400" y="340" as="sourcePoint" />
            <mxPoint x="450" y="290" as="targetPoint" />
          </mxGeometry>
        </mxCell>
        <mxCell id="5rSZPILJxiLm8hArLwOX-39" value="szálláskereső_id = felhasználó_id" style="text;html=1;align=center;verticalAlign=middle;whiteSpace=wrap;rounded=0;" vertex="1" parent="1">
          <mxGeometry x="400" y="320" width="190" height="30" as="geometry" />
        </mxCell>
        <mxCell id="5rSZPILJxiLm8hArLwOX-40" value="" style="endArrow=block;dashed=1;endFill=0;endSize=12;html=1;rounded=0;exitX=0.092;exitY=0.899;exitDx=0;exitDy=0;exitPerimeter=0;" edge="1" parent="1">
          <mxGeometry width="160" relative="1" as="geometry">
            <mxPoint x="665" y="373" as="sourcePoint" />
            <mxPoint x="346" y="373" as="targetPoint" />
          </mxGeometry>
        </mxCell>
        <mxCell id="5rSZPILJxiLm8hArLwOX-41" value="show(&quot;Sikeres foglalás!&quot;)" style="text;html=1;align=center;verticalAlign=middle;whiteSpace=wrap;rounded=0;" vertex="1" parent="1">
          <mxGeometry x="400" y="350" width="200" height="30" as="geometry" />
        </mxCell>
        <mxCell id="5rSZPILJxiLm8hArLwOX-42" value="" style="endArrow=block;dashed=1;endFill=0;endSize=12;html=1;rounded=0;exitX=0.092;exitY=0.899;exitDx=0;exitDy=0;entryX=1.5;entryY=0.284;entryDx=0;entryDy=0;entryPerimeter=0;exitPerimeter=0;" edge="1" parent="1">
          <mxGeometry width="160" relative="1" as="geometry">
            <mxPoint x="335" y="403" as="sourcePoint" />
            <mxPoint x="169" y="400" as="targetPoint" />
          </mxGeometry>
        </mxCell>
        <mxCell id="5rSZPILJxiLm8hArLwOX-44" value="az adat invalid" style="whiteSpace=wrap;html=1;aspect=fixed;" vertex="1" parent="1">
          <mxGeometry x="70" y="430" width="40" height="40" as="geometry" />
        </mxCell>
        <mxCell id="5rSZPILJxiLm8hArLwOX-45" value="" style="endArrow=classic;html=1;rounded=0;exitX=1;exitY=0.75;exitDx=0;exitDy=0;" edge="1" parent="1" source="5rSZPILJxiLm8hArLwOX-8">
          <mxGeometry width="50" height="50" relative="1" as="geometry">
            <mxPoint x="340" y="300" as="sourcePoint" />
            <mxPoint x="347" y="510" as="targetPoint" />
            <Array as="points">
              <mxPoint x="430" y="475" />
              <mxPoint x="430" y="520" />
            </Array>
          </mxGeometry>
        </mxCell>
        <mxCell id="5rSZPILJxiLm8hArLwOX-46" value="show(&quot;helytelen adatok&quot;)" style="text;html=1;align=center;verticalAlign=middle;whiteSpace=wrap;rounded=0;" vertex="1" parent="1">
          <mxGeometry x="430" y="480" width="150" height="30" as="geometry" />
        </mxCell>
      </root>
    </mxGraphModel>
  </diagram>
</mxfile>
